<svg xmlns="http://www.w3.org/2000/svg" width="800" height="800" fill="#FF6A0C" viewBox="0 0 50 50"><path d="M26 3c-.55 0-1 .45-1 1v3h18V4a.999.999 0 0 0-1-1H26zm17.12 5-.12.23-.38.77-.62 1.23-2 4.01V47h5c.55 0 1-.45 1-1V14c0-.16-.04-.31-.11-.45L43.62 9l-.5-1zM24.14 9l-2.68 4h16.92l2-4H24.14zM21 15v10.96c.17-.06.34-.11.51-.15.11-.03.23-.06.34-.08.05-.02.1-.03.15-.03l.01-.01.17-.03c.19-.03.38-.06.57-.08l.25-.03v-.01c.1-.01.2-.02.29-.02.18-.02.35-.02.52-.02a7.29 7.29 0 0 1 3.63.94c.04.02.07.04.1.06.17.1.34.21.51.33.02.01.04.02.05.04.18.12.36.26.52.41.238.208.462.438.675.677.164.184.32.372.469.572.062.084.12.174.18.26a9.228 9.228 0 0 1 .808 1.41c.045.096.092.19.135.287.095.22.18.445.263.674.223.615.407 1.26.541 1.93.09.45.15.92.2 1.39.02.176.034.352.048.528.006.074.017.147.022.22.015.232.021.465.027.698.01.434.016.868-.008 1.304 0 .06 0 .13-.01.19-.03.55-.09 1.1-.17 1.64-.06.36-.119.72-.189 1.08-.13.62-.3 1.24-.49 1.84-.2.6-.42 1.19-.68 1.76-.19.43-.41.85-.64 1.26-.218.373-.45.726-.7 1.08-.23.321-.474.63-.73.92H38V15H21zM5 20c-.55 0-1 .45-1 1v24c0 .55.45 1 1 1h6.75c-.21-.32-.39-.65-.55-1-.03-.04-.05-.09-.07-.13a6.71 6.71 0 0 1-.32-.73c-.02-.05-.04-.09-.05-.14-.62-1.68-.79-3.45-.54-5.24.1-.82.29-1.64.57-2.42.13-.37.28-.76.49-1.25.99-2.19 2.55-4.3 4.35-5.93.61-.56 1.28-1.09 1.99-1.56l.18-.12.09-.05c.1-.07.19-.13.26-.16.29-.18.57-.34.85-.49V20H5zm18.81 7.5c-.26 0-.53.02-.81.06-.33.04-.66.1-1 .19-.26.06-.52.15-.79.25-.07.02-.13.04-.2.07H21c-.62.23-1.24.55-1.87.94-.04.02-.08.04-.12.07-.09.06-.19.12-.28.18-.6.4-1.19.86-1.74 1.37-1.63 1.47-3 3.33-3.89 5.29-.16.37-.3.72-.42 1.07-.25.71-.4 1.39-.48 2.02-.26 1.84.07 3.34.48 4.41.07.19.15.38.25.57.08.18.189.343.283.514.089.165.163.337.267.496l.016.021c.22.338.465.66.734.96l.02.019c.74.87 1.68 1.56 2.72 2.04 1.03.46 2.17.71 3.34.71 1.79 0 3.66-.58 5.27-1.84.66-.51 1.28-1.15 1.84-1.91.44-.61.85-1.3 1.2-2.08 2.39-5.3 1.78-12.99-2.59-14.96a5.313 5.313 0 0 0-2.22-.46z"/></svg>