<svg xmlns="http://www.w3.org/2000/svg" xml:space="preserve" width="800" height="800" fill="#FF6A0C" viewBox="0 0 50 50"><path fill-rule="evenodd" d="M6.785 15.662c6.153-.218 12.404 2.204 17.723 5.349a59.446 59.446 0 0 1 3.388-1.891c-.847-.874-1.688-1.719-2.577-2.503-7.135-6.294-12.309-9.023-20.482-8.336l2.81 5.855a21.31 21.31 0 0 0-.862 1.526m7.922-8.373c3.835 1.463 7.498 3.882 10.601 6.431 3.11-2.54 6.7-4.79 10.456-6.21-6.46-3.981-14.509-4.038-21.057-.221zm30.784 1.266c-7.318-.619-11.905 1.366-18.485 6.62 1.035.932 2.005 1.93 2.97 2.933 4.164-1.901 8.59-3.167 13.039-3.059l-.347-.595 2.823-5.899zm-5.875 8.935c-4.157.563-8.491 2.301-12.95 4.863 6.043 3.913 10.76 8.462 15.891 13.455 2.245-3.629 3.218-7.628 3.028-11.88L50 18.898c-3.724-1.389-6.072-1.991-10.384-1.408zm1.641 20.18c-5.394-5.259-10.318-9.991-16.747-14.023-6.452-4.047-12.451-5.979-17.742-5.746-2.532.107-4.406.788-6.768 1.669 1.582 1.626 3.098 3.192 4.539 4.953-.266 11.651 9.116 21.153 20.774 21.001 5.995-.078 11.938-2.743 15.944-7.854z" clip-rule="evenodd"/></svg>