<svg xmlns="http://www.w3.org/2000/svg" xml:space="preserve" width="800" height="800" fill="#fff" viewBox="0 0 32 32"><circle cx="12" cy="16" r="5"/><path d="M12 6C6.5 6 2 10.5 2 16s4.5 10 10 10 10-4.5 10-10S17.5 6 12 6zm0 17c-3.9 0-7-3.1-7-7s3.1-7 7-7 7 3.1 7 7-3.1 7-7 7zm18-12.5V5c0-.6-.4-1-1-1s-1 .4-1 1v6h-1V5c0-.6-.4-1-1-1s-1 .4-1 1v6h-1V5c0-.6-.4-1-1-1s-1 .4-1 1v5.5c0 1.9.5 3.4 1.4 4.3.7.8 1 1.8.9 2.7l-1 7.3c-.1.8.1 1.6.6 2.2s1.3 1 2.1 1 1.5-.3 2.1-.9.8-1.4.6-2.2l-1-7.3c-.1-1 .2-2 .9-2.8.9-1 1.4-2.5 1.4-4.3z"/></svg>